<?xml version="1.0" encoding="UTF-8"?>
<svg xmlns="http://www.w3.org/2000/svg" width="15.894569873809814" height="16.426799297332764"
  viewBox="337.81275704822207 916.2866003513334 17.894569873809814 16.426799297332764"
  preserveAspectRatio="none">
  <g>
    <defs>
      <path id="s-Path_14-62e9c"
        d="M340.7043671937909 932.7133996486662 L352.8069267602887 932.7133996486662 C354.71412661990786 932.7133996486662 355.7073269220319 931.7289998531339 355.7073269220319 929.8481004238126 L355.7073269220319 919.1518399715421 C355.7073269220319 917.270980119705 354.71412661990786 916.2866003513334 352.8069267602887 916.2866003513334 L340.7043671937909 916.2866003513334 C338.80592683276797 916.2866003513334 337.81275704822207 917.2621901035307 337.81275704822207 919.1518399715421 L337.81275704822207 929.8481004238126 C337.81275704822207 931.7289998531339 338.80592683276797 932.7133996486662 340.7043671937909 932.7133996486662 Z M340.6955771776166 930.9642999172208 C339.9660768838849 930.9642999172208 339.5617871614423 930.586400747299 339.5617871614423 929.812999486923 L339.5617871614423 921.7269999980924 C339.5617871614423 920.9536006450651 339.9660768838849 920.5756604671476 340.6955771776166 920.5756604671476 L352.8157272668805 920.5756604671476 C353.54522708377505 920.5756604671476 353.9495277734723 920.9536006450651 353.9495277734723 921.7269999980924 L353.9495277734723 929.812999486923 C353.9495277734723 930.586400747299 353.54522708377505 930.9642999172208 352.8157272668805 930.9642999172208 L340.6955771776166 930.9642999172208 Z M345.063727411839 923.607900381088 L345.5823269220319 923.607900381088 C345.89872649631167 923.607900381088 346.0041265817609 923.5112006664274 346.0041265817609 923.2036006450651 L346.0041265817609 922.6850001811979 C346.0041265817609 922.3686006069181 345.89872649631167 922.2720000743864 345.5823269220319 922.2720000743864 L345.063727411839 922.2720000743864 C344.7473268838849 922.2720000743864 344.64182666263247 922.3686006069181 344.64182666263247 922.6850001811979 L344.64182666263247 923.2036006450651 C344.64182666263247 923.5112006664274 344.7473268838849 923.607900381088 345.063727411839 923.607900381088 Z M347.9377270074811 923.607900381088 L348.456326517674 923.607900381088 C348.7639274927106 923.607900381088 348.8694267602887 923.5112006664274 348.8694267602887 923.2036006450651 L348.8694267602887 922.6850001811979 C348.8694267602887 922.3686006069181 348.7639274927106 922.2720000743864 348.456326517674 922.2720000743864 L347.9377270074811 922.2720000743864 C347.6213274332013 922.2720000743864 347.5159273477521 922.3686006069181 347.5159273477521 922.6850001811979 L347.5159273477521 923.2036006450651 C347.5159273477521 923.5112006664274 347.6213274332013 923.607900381088 347.9377270074811 923.607900381088 Z M350.8030262323346 923.607900381088 L351.3215275140729 923.607900381088 C351.63792613467837 923.607900381088 351.7434273096051 923.5112006664274 351.7434273096051 923.2036006450651 L351.7434273096051 922.6850001811979 C351.7434273096051 922.3686006069181 351.63792613467837 922.2720000743864 351.3215275140729 922.2720000743864 L350.8030262323346 922.2720000743864 C350.4954262109723 922.2720000743864 350.3899269433942 922.3686006069181 350.3899269433942 922.6850001811979 L350.3899269433942 923.2036006450651 C350.3899269433942 923.5112006664274 350.4954262109723 923.607900381088 350.8030262323346 923.607900381088 Z M342.19850734195376 926.4380004405973 L342.70826724490786 926.4380004405973 C343.02462676486635 926.4380004405973 343.1301269861188 926.3412997722623 343.1301269861188 926.0249001979826 L343.1301269861188 925.5063006877897 C343.1301269861188 925.1987006664274 343.02462676486635 925.1019999980924 342.70826724490786 925.1019999980924 L342.19850734195376 925.1019999980924 C341.8820972772565 925.1019999980924 341.77662661990786 925.1987006664274 341.77662661990786 925.5063006877897 L341.77662661990786 926.0249001979826 C341.77662661990786 926.3412997722623 341.8820972772565 926.4380004405973 342.19850734195376 926.4380004405973 Z M345.063727411839 926.4380004405973 L345.5823269220319 926.4380004405973 C345.89872649631167 926.4380004405973 346.0041265817609 926.3412997722623 346.0041265817609 926.0249001979826 L346.0041265817609 925.5063006877897 C346.0041265817609 925.1987006664274 345.89872649631167 925.1019999980924 345.5823269220319 925.1019999980924 L345.063727411839 925.1019999980924 C344.7473268838849 925.1019999980924 344.64182666263247 925.1987006664274 344.64182666263247 925.5063006877897 L344.64182666263247 926.0249001979826 C344.64182666263247 926.3412997722623 344.7473268838849 926.4380004405973 345.063727411839 926.4380004405973 Z M347.9377270074811 926.4380004405973 L348.456326517674 926.4380004405973 C348.7639274927106 926.4380004405973 348.8694267602887 926.3412997722623 348.8694267602887 926.0249001979826 L348.8694267602887 925.5063006877897 C348.8694267602887 925.1987006664274 348.7639274927106 925.1019999980924 348.456326517674 925.1019999980924 L347.9377270074811 925.1019999980924 C347.6213274332013 925.1019999980924 347.5159273477521 925.1987006664274 347.5159273477521 925.5063006877897 L347.5159273477521 926.0249001979826 C347.5159273477521 926.3412997722623 347.6213274332013 926.4380004405973 347.9377270074811 926.4380004405973 Z M350.8030262323346 926.4380004405973 L351.3215275140729 926.4380004405973 C351.63792613467837 926.4380004405973 351.7434273096051 926.3412997722623 351.7434273096051 926.0249001979826 L351.7434273096051 925.5063006877897 C351.7434273096051 925.1987006664274 351.63792613467837 925.1019999980924 351.3215275140729 925.1019999980924 L350.8030262323346 925.1019999980924 C350.4954262109723 925.1019999980924 350.3899269433942 925.1987006664274 350.3899269433942 925.5063006877897 L350.3899269433942 926.0249001979826 C350.3899269433942 926.3412997722623 350.4954262109723 926.4380004405973 350.8030262323346 926.4380004405973 Z M342.19850734195376 929.2592999935148 L342.70826724490786 929.2592999935148 C343.02462676486635 929.2592999935148 343.1301269861188 929.1625993251798 343.1301269861188 928.8549993038175 L343.1301269861188 928.336400747299 C343.1301269861188 928.0200002193449 343.02462676486635 927.9232995510099 342.70826724490786 927.9232995510099 L342.19850734195376 927.9232995510099 C341.8820972772565 927.9232995510099 341.77662661990786 928.0200002193449 341.77662661990786 928.336400747299 L341.77662661990786 928.8549993038175 C341.77662661990786 929.1625993251798 341.8820972772565 929.2592999935148 342.19850734195376 929.2592999935148 Z M345.063727411839 929.2592999935148 L345.5823269220319 929.2592999935148 C345.89872649631167 929.2592999935148 346.0041265817609 929.1625993251798 346.0041265817609 928.8549993038175 L346.0041265817609 928.336400747299 C346.0041265817609 928.0200002193449 345.89872649631167 927.9232995510099 345.5823269220319 927.9232995510099 L345.063727411839 927.9232995510099 C344.7473268838849 927.9232995510099 344.64182666263247 928.0200002193449 344.64182666263247 928.336400747299 L344.64182666263247 928.8549993038175 C344.64182666263247 929.1625993251798 344.7473268838849 929.2592999935148 345.063727411839 929.2592999935148 Z M347.9377270074811 929.2592999935148 L348.456326517674 929.2592999935148 C348.7639274927106 929.2592999935148 348.8694267602887 929.1625993251798 348.8694267602887 928.8549993038175 L348.8694267602887 928.336400747299 C348.8694267602887 928.0200002193449 348.7639274927106 927.9232995510099 348.456326517674 927.9232995510099 L347.9377270074811 927.9232995510099 C347.6213274332013 927.9232995510099 347.5159273477521 928.0200002193449 347.5159273477521 928.336400747299 L347.5159273477521 928.8549993038175 C347.5159273477521 929.1625993251798 347.6213274332013 929.2592999935148 347.9377270074811 929.2592999935148 Z "></path>
    </defs>
    <g style="mix-blend-mode:normal">
      <use xmlns:xlink="http://www.w3.org/1999/xlink" xlink:href="#s-Path_14-62e9c" fill="#8E8E93"
        fill-opacity="1.0"></use>
    </g>
  </g>
</svg>