<?xml version="1.0" encoding="UTF-8"?>
<svg xmlns="http://www.w3.org/2000/svg" width="20.0" height="20.0" viewBox="509.89452921338653 2517.500048513387 20.0 20.0" preserveAspectRatio="none">
  <g>
    <defs>
      <path id="s-Path_35-784bf" d="M519.7745293278274 2524.6400488567097 C521.0545292992172 2524.7000488553685 521.3845293421325 2525.790048832868 521.404529323059 2526.300048823331 L523.194529284912 2526.300048823331 C523.1145292867002 2524.3200488042576 521.7045292753753 2523.1100487661106 519.7445292372283 2523.1100487661106 C517.5345295567092 2523.1100486469013 515.8945292133865 2524.500048513387 515.8945292133865 2527.6400488567097 C515.8945292133865 2529.58004891393 516.824529220539 2531.880048627828 519.7345291275558 2531.880048627828 C521.954529156166 2531.880048627828 523.1445292133865 2530.2300486516697 523.1745291847762 2528.930048580144 L521.3845292229232 2528.930048580144 C521.3545292235938 2529.520048553918 520.9345292348441 2530.3100485753757 519.7545292276916 2530.3700486373646 C518.4445294041213 2530.330048437093 517.8945292133865 2529.3100489330036 517.8945292133865 2527.6400488567097 C517.8945292133865 2524.750048513387 519.1745289463577 2524.660048360799 519.7745293278274 2524.6400488567097 Z M519.8945292133865 2517.500048513387 C514.37452923246 2517.500048513387 509.89452921338653 2521.9800485324604 509.89452921338653 2527.500048513387 C509.89452921338653 2533.0200484943134 514.37452923246 2537.500048513387 519.8945292133865 2537.500048513387 C525.414529194313 2537.500048513387 529.8945292133865 2533.0200484943134 529.8945292133865 2527.500048513387 C529.8945292133865 2521.9800485324604 525.4145296711501 2517.500048513387 519.8945292133865 2517.500048513387 Z M519.8945292133865 2535.500048513387 C515.4845293659744 2535.500048513387 511.89452921338653 2531.9100485992176 511.89452921338653 2527.500048513387 C511.89452921338653 2523.090048427556 515.4845291275558 2519.500048513387 519.8945292133865 2519.500048513387 C524.3045292992172 2519.500048513387 527.8945292133865 2523.090048427556 527.8945292133865 2527.500048513387 C527.8945292133865 2531.9100485992176 524.3045290607986 2535.500048513387 519.8945292133865 2535.500048513387 Z "></path>
    </defs>
    <g style="mix-blend-mode:normal">
      <use xmlns:xlink="http://www.w3.org/1999/xlink" xlink:href="#s-Path_35-784bf" fill="#7D7D7D" fill-opacity="1.0"></use>
    </g>
  </g>
</svg>
