<?xml version="1.0" encoding="UTF-8"?>
<svg xmlns="http://www.w3.org/2000/svg" width="20.803749084472656" height="15.231439113616943" viewBox="336.35816744289144 811.6782290514969 20.803749084472656 15.231439113616943" preserveAspectRatio="none">
  <g>
    <defs>
      <path id="s-Path_18-757ce" d="M339.24976757487997 826.9096681651139 L354.27031687221273 826.9096681651139 C356.1775167318319 826.9096681651139 357.1619165273641 825.9164697703385 357.1619165273641 824.0356695231461 L357.1619165273641 814.5434591349625 C357.1619165273641 812.6625988062882 356.1775167318319 811.6782290514969 354.27031687221273 811.6782290514969 L339.24976757487997 811.6782290514969 C337.351327213857 811.6782290514969 336.35816744289144 812.6625988062882 336.35816744289144 814.5434591349625 L336.35816744289144 824.0356695231461 C336.35816744289144 825.9252683695817 337.351327213857 826.9096681651139 339.24976757487997 826.9096681651139 Z M338.10718754253134 814.7016689356827 C338.10718754253134 813.8579189356827 338.55543735942587 813.436038690474 339.3640272947286 813.436038690474 L354.1560170980428 813.436038690474 C354.9646165700887 813.436038690474 355.4128167959188 813.8579189356827 355.4128167959188 814.7016689356827 L355.4128167959188 815.3344785746598 L338.10718754253134 815.3344785746598 L338.10718754253134 814.7016689356827 Z M339.3640272947286 825.1518690165543 C338.55543735942587 825.1518690165543 338.10718754253134 824.7299692210221 338.10718754253134 823.8862688120865 L338.10718754253134 817.3998691615128 L355.4128167959188 817.3998691615128 L355.4128167959188 823.8862688120865 C355.4128167959188 824.7299692210221 354.9646165700887 825.1518690165543 354.1560170980428 825.1518690165543 L339.3640272947286 825.1518690165543 Z M340.5593374105428 823.5610696848893 L342.7126577230428 823.5610696848893 C343.2312171789144 823.5610696848893 343.58281782588705 823.2182695445084 343.58281782588705 822.726068693068 L343.58281782588705 821.0912687357926 C343.58281782588705 820.5991689738297 343.2312171789144 820.2563688334488 342.7126577230428 820.2563688334488 L340.5593374105428 820.2563688334488 C340.0495775075887 820.2563688334488 339.6980073781942 820.5991689738297 339.6980073781942 821.0912687357926 L339.6980073781942 822.726068693068 C339.6980073781942 823.2182695445084 340.0495775075887 823.5610696848893 340.5593374105428 823.5610696848893 Z "></path>
    </defs>
    <g style="mix-blend-mode:normal">
      <use xmlns:xlink="http://www.w3.org/1999/xlink" xlink:href="#s-Path_18-757ce" fill="#8E8E93" fill-opacity="1.0"></use>
    </g>
  </g>
</svg>
