<?xml version="1.0" encoding="UTF-8"?>
<svg xmlns="http://www.w3.org/2000/svg" width="10.180000066757202" height="18.0"
  viewBox="742.1937988680128 1019.2939486083053 10.180000066757202 18.0" preserveAspectRatio="none">
  <g>
    <defs>
      <path id="s-Path_304-757ce"
        d="M747.6737991255048 1027.1939482268356 C745.4037991445783 1026.6039482530616 744.6737991255048 1025.9939481791519 744.6737991255048 1025.0439481314681 C744.6737991255048 1023.9539480980895 745.6837991159681 1023.1939481076263 747.3737991731886 1023.1939481076263 C749.1537991445783 1023.1939481076263 749.813799230409 1024.0439481314681 749.8737991731886 1025.2939480122589 L752.0837992113355 1025.2939480122589 C752.0137992110375 1023.5739479836486 750.9637992065672 1021.9939480599426 748.8737991731886 1021.4839480694793 L748.8737991731886 1019.2939486083053 L745.8737991731886 1019.2939486083053 L745.8737991731886 1021.453948694136 C743.9337991159681 1021.873948681023 742.3737991731886 1023.1339486416839 742.3737991731886 1025.0639485892318 C742.3737991731886 1027.3739485320114 744.28379913981 1028.5239486273788 747.0737989824537 1029.1939487036727 C749.5737989824537 1029.7939487275146 750.0737989824537 1030.6739487227462 750.0737989824537 1031.6039487895034 C750.0737989824537 1032.2939487871192 749.583798972917 1033.3939487513564 747.37379893477 1033.3939487513564 C745.3137989919904 1033.3939487513564 744.5037990492109 1032.4739487346671 744.3937989156965 1031.2939488467239 L742.1937988680128 1031.2939488467239 C742.3137988653306 1033.4839489039443 743.953798858476 1034.7139489230178 745.87379893477 1035.12394877043 L745.87379893477 1037.2939486083053 L748.87379893477 1037.2939486083053 L748.87379893477 1035.1439485129379 C750.8237989824537 1034.7739485081695 752.37379893477 1033.6439485129379 752.37379893477 1031.5939485606216 C752.37379893477 1028.7539486464523 749.9437988680128 1027.783948617842 747.6737991255048 1027.1939484652542 Z "></path>
    </defs>
    <g style="mix-blend-mode:normal">
      <use xmlns:xlink="http://www.w3.org/1999/xlink" xlink:href="#s-Path_304-757ce" fill="#7D7D7D"
        fill-opacity="1.0"></use>
    </g>
  </g>
</svg>