<?xml version="1.0" encoding="UTF-8"?>
<svg xmlns="http://www.w3.org/2000/svg" width="18.184580326080322" height="18.175790786743164"
    viewBox="738.1915087383511 914.4121046066284 18.184580326080322 18.175790786743164"
    preserveAspectRatio="none">
    <g>
        <defs>
            <path id="s-Path_20-757ce"
                d="M747.2793893497708 932.5878953933716 C752.2627887409451 932.5878953933716 756.3760890644314 928.4745950698853 756.3760890644314 923.4999942779541 C756.3760890644314 918.5253849029541 752.2539882343533 914.4121046066284 747.270588843179 914.4121046066284 C742.2959985416653 914.4121046066284 738.1915087383511 918.5253849029541 738.1915087383511 923.4999942779541 C738.1915087383511 928.4745950698853 742.3047885578396 932.5878953933716 747.2793893497708 932.5878953933716 Z M747.2793893497708 930.7772951126099 C743.245219199014 930.7772951126099 740.0196389835598 927.5341939926147 740.0196389835598 923.4999942779541 C740.0196389835598 919.4658145904541 743.245219199014 916.2314343452454 747.270588843179 916.2314343452454 C751.3047885578396 916.2314343452454 754.5479888599637 919.4658145904541 754.5567893665554 923.4999942779541 C754.5654887836697 927.5341939926147 751.3135890644314 930.7772951126099 747.2793893497708 930.7772951126099 Z M747.270588843179 928.4394941329956 C747.4990892093899 928.4394941329956 747.6748885792019 928.2724943161011 747.6748885792019 928.035195350647 L747.6748885792019 927.4462938308716 C749.0986890476468 927.3144941329956 750.1709880512478 926.4970941543579 750.1709880512478 925.1610946655273 C750.1709880512478 923.9657945632935 749.3975886982205 923.2626943588257 747.8682889621975 922.9813947677612 L747.6748885792019 922.9374942779541 L747.6748885792019 920.757794380188 C748.2373885792019 920.8544940948486 748.6240892093899 921.188494682312 748.7910890262845 921.706995010376 C748.9229888599637 921.9970941543579 749.1074886005642 922.1640949249268 749.4238891285183 922.1640949249268 C749.775489775491 922.1640949249268 750.0215892475369 921.9267950057983 750.0215892475369 921.592794418335 C750.0215892475369 921.4872941970825 749.9951896351101 921.3905944824219 749.9776897114041 921.2851943969727 C749.7402896564724 920.3798942565918 748.8526887577298 919.7294845581055 747.6748885792019 919.6064348220825 L747.6748885792019 919.0175743103027 C747.6748885792019 918.7802648544312 747.4990892093899 918.6132745742798 747.270588843179 918.6132745742798 C747.042088476968 918.6132745742798 746.8750886600735 918.7802648544312 746.8750886600735 919.0175743103027 L746.8750886600735 919.6064348220825 C745.4863891285183 919.7470645904541 744.502088515115 920.5907945632935 744.502088515115 921.8124942779541 C744.502088515115 922.9550943374634 745.2666892688992 923.6229944229126 746.7256889026883 923.956995010376 L746.8750886600735 923.9921941757202 L746.8750886600735 926.3124952316284 C746.1631889026883 926.2069940567017 745.7500886600735 925.8290948867798 745.6094884556057 925.3104944229126 C745.4863891285183 924.9940948486328 745.2842893284085 924.8358945846558 744.9854888599637 924.8358945846558 C744.616289107156 924.8358945846558 744.3789891880276 925.081995010376 744.3789891880276 925.4335947036743 C744.3789891880276 925.530294418335 744.4053888004544 925.6268949508667 744.4317893665554 925.7411947250366 C744.6865892093899 926.6727952957153 745.6182889621975 927.3231954574585 746.8750886600735 927.4374952316284 L746.8750886600735 928.035195350647 C746.8750886600735 928.2811937332153 747.042088476968 928.4394941329956 747.270588843179 928.4394941329956 Z M746.8750886600735 922.735294342041 L746.8135890644314 922.717794418335 C746.1104888599637 922.5155944824219 745.7852887790921 922.2079944610596 745.7852887790921 921.7333946228027 C745.7852887790921 921.2499942779541 746.1983890217068 920.8544940948486 746.8750886600735 920.7489948272705 L746.8750886600735 922.735294342041 Z M747.6748885792019 924.1942949295044 L747.8418893497708 924.2294940948486 C748.6065892856839 924.4403944015503 748.8789891880276 924.7567949295044 748.8789891880276 925.257794380188 C748.8789891880276 925.8114948272705 748.4746884983304 926.2157945632935 747.6748885792019 926.3124952316284 L747.6748885792019 924.1942949295044 Z "></path>
        </defs>
        <g style="mix-blend-mode:normal">
            <use xmlns:xlink="http://www.w3.org/1999/xlink" xlink:href="#s-Path_20-757ce"
                fill="#8E8E93" fill-opacity="1.0"></use>
        </g>
    </g>
</svg>