<?xml version="1.0" encoding="UTF-8"?>
<svg xmlns="http://www.w3.org/2000/svg" width="18.999999999999773" height="19.289062269963324" viewBox="1088.0419585213465 2284.000048513388 18.999999999999773 19.289062269963324" preserveAspectRatio="none">
  <g>
    <defs>
      <path id="s-Path_6-784bf" d="M1107.0419585213463 2293.500048513388 C1107.0419585213463 2288.2527828317634 1102.7892239198486 2284.000048513388 1097.5419585213463 2284.000048513388 C1092.2946931228441 2284.000048513388 1088.0419585213465 2288.2527828317634 1088.0419585213465 2293.500048513388 C1088.0419585213465 2298.2426267516366 1091.515395964722 2302.172509337639 1096.0575835213465 2302.88500922439 L1096.0575835213465 2296.246142263388 L1093.6454741463465 2296.246142263388 L1093.6454741463465 2293.500048513388 L1096.0575835213465 2293.500048513388 L1096.0575835213465 2291.4070799898855 C1096.0575835213465 2289.026513243889 1097.4751615330977 2287.710986013388 1099.6460605368416 2287.710986013388 C1100.6851230368416 2287.710986013388 1101.7724276960294 2287.896532888388 1101.7724276960294 2287.896532888388 L1101.7724276960294 2290.234423513388 L1100.5737949118416 2290.234423513388 C1099.3937168151538 2290.234423513388 1099.0263339460294 2290.967333669638 1099.0263339460294 2291.718798513388 L1099.0263339460294 2293.500048513388 L1101.6610995710294 2293.500048513388 L1101.2399081506233 2296.246142263388 L1099.0263335213463 2296.246142263388 L1099.0263335213463 2302.88500922439 C1103.5685207948486 2302.172509903883 1107.0419585213463 2298.2426261853925 1107.0419585213463 2293.500048513388 Z "></path>
    </defs>
    <g style="mix-blend-mode:normal">
      <use xmlns:xlink="http://www.w3.org/1999/xlink" xlink:href="#s-Path_6-784bf" fill="#000000" fill-opacity="1.0"></use>
    </g>
  </g>
  <g>
    <defs>
      <path id="s-Path_15-784bf" d="M1101.6363918885986 2296.535204763388 L1102.0575835213463 2293.789111013388 L1099.4228178963465 2293.789111013388 L1099.4228178963465 2292.007861013388 C1099.4228178963465 2291.256396169638 1099.7902006946904 2290.523486013388 1100.9702788621585 2290.523486013388 L1102.1689116463463 2290.523486013388 L1102.1689116463463 2288.185595388388 C1102.1689116463463 2288.185595388388 1101.0816069871585 2288.000048513388 1100.0425444871587 2288.000048513388 C1097.8716460496587 2288.000048513388 1096.4540680379075 2289.31557588545 1096.4540680379075 2291.6961422067634 L1096.4540680379075 2293.789111013388 L1094.0419585213465 2293.789111013388 L1094.0419585213465 2296.535204763388 L1096.4540678963465 2296.535204763388 L1096.4540678963465 2303.17407172439 C1096.9383452471745 2303.2501459413706 1097.4337553821904 2303.289110783351 1097.9384428963465 2303.289110783351 C1098.4431304105026 2303.289110783351 1098.9385405809087 2303.2501459413706 1099.4228178963465 2303.17407172439 L1099.4228178963465 2296.535204763388 L1101.6363918885986 2296.535204763388 Z "></path>
    </defs>
    <g style="mix-blend-mode:normal">
      <use xmlns:xlink="http://www.w3.org/1999/xlink" xlink:href="#s-Path_15-784bf" fill="#FFFFFF" fill-opacity="1.0"></use>
    </g>
  </g>
</svg>
