<svg width="26" height="26" viewBox="0 0 26 26" fill="none" xmlns="http://www.w3.org/2000/svg">
<path d="M13.0005 5.02721C14.8632 4.99855 16.6646 5.69251 18.0267 6.96346L21.6955 3.37596C19.3417 1.17039 16.2259 -0.0390273 13.0005 0.000960935C10.5905 0.000404079 8.22797 0.670256 6.17696 1.93561C4.12596 3.20096 2.46738 5.01192 1.38672 7.16596L5.59047 10.4297C6.10448 8.86678 7.09614 7.50463 8.42559 6.53535C9.75505 5.56607 11.3552 5.03856 13.0005 5.02721Z" fill="#E43E2B"/>
<path d="M25.4801 13.2901C25.4954 12.3964 25.4031 11.5042 25.2051 10.6326H13.0001V15.4576H20.1651C20.0292 16.3035 19.7236 17.1132 19.2667 17.838C18.8098 18.5628 18.211 19.1877 17.5064 19.6751L21.6089 22.8526C22.8874 21.6182 23.8929 20.1293 24.5604 18.4822C25.2278 16.8351 25.5424 15.0663 25.4839 13.2901H25.4801Z" fill="#3B7DED"/>
<path d="M5.60543 15.5716C5.3212 14.744 5.17467 13.8754 5.17168 13.0004C5.17686 12.1267 5.31814 11.2593 5.59043 10.4291L1.38668 7.16537C0.47492 8.97555 0 10.9742 0 13.001C0 15.0278 0.47492 17.0265 1.38668 18.8366L5.60543 15.5716Z" fill="#F0B501"/>
<path d="M13.0004 26.0008C16.167 26.0904 19.2476 24.9636 21.6091 22.8521L17.5066 19.6746C16.1764 20.5663 14.6011 21.0208 13.0004 20.9746C11.3565 20.9648 9.7575 20.4376 8.43013 19.4679C7.10275 18.4982 6.11443 17.1351 5.60536 15.5721L1.40161 18.8371C2.47936 20.9901 4.13522 22.8007 6.18375 24.0659C8.23229 25.3312 10.5926 26.0011 13.0004 26.0008Z" fill="#2BA24C"/>
</svg>
