<svg width="25" height="24" viewBox="0 0 25 24" fill="none" xmlns="http://www.w3.org/2000/svg">
    <path fill-rule="evenodd" clip-rule="evenodd"
        d="M11.3755 17.9607C11.6753 17.9865 11.9843 18 12.3028 18C17.3358 18 21.5299 12 21.5299 12C21.5299 12 20.8434 11.0179 19.6926 9.84836L11.3755 17.9607Z"
        fill="#BBB5B5" />
    <path fill-rule="evenodd" clip-rule="evenodd"
        d="M14.8712 6.49485C14.0535 6.18695 13.1912 6 12.3028 6C5.59217 6 3.07568 12 3.07568 12C3.07568 12 3.84468 13.8335 5.66606 15.4734L9.2271 12C9.2271 10.3431 10.6041 9 12.3028 9L14.8712 6.49485Z"
        fill="#BBB5B5" />
    <rect opacity="0.3" width="19.2412" height="2.02539"
        transform="matrix(0.715863 -0.698241 0.715863 0.698241 5.22876 18.435)" fill="#979797" />
</svg>