<?xml version="1.0" encoding="UTF-8"?>
<svg xmlns="http://www.w3.org/2000/svg" width="18.90377431875072" height="18.900023305194736" viewBox="1124.6639525399012 2284.000048513388 18.90377431875072 18.900023305194736" preserveAspectRatio="none">
  <g>
    <defs>
      <path id="s-Path_16-784bf" d="M1134.1120886857204 2285.7028885524123 C1136.6363427820042 2285.7028885524123 1136.932651712904 2285.714140799435 1137.9303511382122 2285.759149785291 C1138.8530353717292 2285.800408023629 1139.3518850128435 2285.9541887187825 1139.6857015754088 2286.0854649288326 C1140.1282899478742 2286.25799937275 1140.4433528734564 2286.46053981469 1140.773418744395 2286.7906056856286 C1141.1034846511034 2287.120671592337 1141.309775838325 2287.435734517919 1141.4785595011908 2287.878322854615 C1141.6060849659593 2288.21213948872 1141.7636164108656 2288.710989129834 1141.8048746447328 2289.633673291811 C1141.8498836328242 2290.6313725024997 1141.8611358776113 2290.927681648019 1141.8611358776113 2293.4519357443032 C1141.8611358776113 2295.976189840587 1141.8498836305885 2296.2724987714864 1141.8048746447328 2297.270198196795 C1141.7636164063942 2298.192882430312 1141.609835711241 2298.691732071426 1141.4785595011908 2299.025548633991 C1141.3060250572735 2299.468137006457 1141.1034846153336 2299.783199932039 1140.773418744395 2300.1132658029774 C1140.4433528376865 2300.443331709686 1140.1282899121045 2300.6496228969077 1139.6857015754088 2300.8184065597734 C1139.3518849413035 2300.945932024542 1138.8530353001893 2301.103463469448 1137.9303511382122 2301.1447217033156 C1136.9326519275237 2301.1897306914066 1136.6363427820042 2301.200982936194 1134.1120886857204 2301.200982936194 C1131.5878345894366 2301.200982936194 1131.291525658537 2301.189730689171 1130.2938262332289 2301.1447217033156 C1129.3711419997117 2301.103463464977 1128.8722923585976 2300.9496827698235 1128.5384757960323 2300.8184065597734 C1128.0958874235666 2300.645872115856 1127.7808244979844 2300.443331673916 1127.450758627046 2300.1132658029774 C1127.1206927203375 2299.7831998962693 1126.914401533116 2299.468136970687 1126.74561787025 2299.025548633991 C1126.6180924054815 2298.691731999886 1126.4605609605755 2298.192882358772 1126.419302726708 2297.270198196795 C1126.3742937386169 2296.2724989861063 1126.3630414938295 2295.976189840587 1126.3630414938295 2293.4519357443032 C1126.3630414938295 2290.927681648019 1126.3742937408524 2290.6313727171196 1126.419302726708 2289.633673291811 C1126.4605609650466 2288.710989058294 1126.6143416602 2288.21213941718 1126.74561787025 2287.878322854615 C1126.9181523141674 2287.435734482149 1127.1206927561075 2287.1206715565672 1127.450758627046 2286.7906056856286 C1127.7808245337544 2286.46053977892 1128.0958874593366 2286.2542485916983 1128.5384757960323 2286.0854649288326 C1128.8722924301373 2285.957939464064 1129.3711420712516 2285.800408019158 1130.2938262332289 2285.759149785291 C1131.291525658537 2285.7103899356653 1131.5915855672229 2285.7028885524123 1134.1120886857204 2285.7028885524123 M1134.1120886857204 2284.000048513388 C1131.5465764092244 2284.000048513388 1131.2240120646188 2284.0113007604104 1130.2150605644306 2284.0563097462664 C1129.2098600420286 2284.101318734358 1128.5234731726052 2284.262600933488 1127.9233533552335 2284.4951473555657 C1127.3007290304024 2284.7351952860913 1126.775624190202 2285.0615104475182 1126.2505194215416 2285.5866152877184 C1125.7254145813413 2286.111720127919 1125.402850165196 2286.6405757312855 1125.1590514893887 2287.2594492214103 C1124.9265050673112 2287.859569038782 1124.7652228592385 2288.545956051285 1124.7202138800897 2289.554907551473 C1124.675204786924 2290.5601080381057 1124.6639525399012 2290.8826726688703 1124.6639525399012 2293.448184659207 C1124.6639525399012 2296.0136969357036 1124.675204786924 2296.336261280309 1124.7202137727797 2297.345212780497 C1124.7652227608712 2298.3504134459786 1124.9265049600012 2299.0368004584816 1125.1590513820788 2299.64067111056 C1125.3990993126047 2300.2632954353912 1125.7254144740316 2300.7884002755914 1126.2505193142317 2301.313505044252 C1126.775624154432 2301.838609884452 1127.3044797577988 2302.1611743005974 1127.9233532479236 2302.4049729764047 C1128.5234730652955 2302.6375193984823 1129.2098600777986 2302.798801606555 1130.2188115779868 2302.843810585704 C1131.227763006635 2302.8888195737954 1131.5465767311537 2302.9000718185825 1134.1158396992764 2302.9000718185825 C1136.6851026673994 2302.9000718185825 1137.0039163203783 2302.88881957156 1138.0128678205663 2302.843810585704 C1139.0180684860482 2302.7988015976125 1139.7044554985512 2302.6375193984823 1140.3083261506295 2302.4049729764047 C1140.9309504754606 2302.164925045879 1141.456055315661 2301.838609884452 1141.9811600843213 2301.313505044252 C1142.5062649245215 2300.7884002040514 1142.828829340667 2300.259544600685 1143.0726280164743 2299.64067111056 C1143.3051744385518 2299.0405512931884 1143.4664566466245 2298.3541642806854 1143.5114656257733 2297.345212780497 C1143.5564746138646 2296.336261351849 1143.567726858652 2296.01744762733 1143.567726858652 2293.448184659207 C1143.567726858652 2290.878921691084 1143.556474611629 2290.5601080381057 1143.5114656257733 2289.5511565379174 C1143.4664566376819 2288.5459558724356 1143.3051744385518 2287.8595688599326 1143.0726280164743 2287.2556982078545 C1142.8325800859484 2286.633073883023 1142.5062649245215 2286.107969042823 1141.9811600843213 2285.5828642741626 C1141.456055244121 2285.057759433962 1140.9271996407542 2284.7351950178167 1140.3083261506295 2284.4913963420095 C1139.7082063332575 2284.258849919932 1139.0218193207545 2284.0975677118595 1138.0128678205663 2284.05255873271 C1137.000165306822 2284.0113007604104 1136.6776006760572 2284.000048513388 1134.1120886857204 2284.000048513388 L1134.1120886857204 2284.000048513388 Z "></path>
    </defs>
    <g style="mix-blend-mode:normal">
      <use xmlns:xlink="http://www.w3.org/1999/xlink" xlink:href="#s-Path_16-784bf" fill="#000000" fill-opacity="1.0"></use>
    </g>
  </g>
  <g>
    <defs>
      <path id="s-Path_17-784bf" d="M1134.1158396992764 2288.5965913719183 C1131.437804957023 2288.5965913719183 1129.2623709052098 2290.7682750182644 1129.2623709052098 2293.450060165985 C1129.2623709052098 2296.1318453137055 1131.4340545515558 2298.3035289600516 1134.1158396992764 2298.3035289600516 C1136.7976248469972 2298.3035289600516 1138.9693084933433 2296.1318453137055 1138.9693084933433 2293.450060165985 C1138.9693084933433 2290.7682750182644 1136.7976251331565 2288.5965913719183 1134.1158396992764 2288.5965913719183 Z M1134.1158396992764 2296.59693851556 C1132.3754921716663 2296.59693851556 1130.9652106580747 2295.1866570019683 1130.9652106580747 2293.4463094743583 C1130.9652106580747 2291.705961946748 1132.3754921716663 2290.2956804331566 1134.1158396992764 2290.2956804331566 C1135.8561872268865 2290.2956804331566 1137.2664687404783 2291.705961946748 1137.2664687404783 2293.4463094743583 C1137.2664687404783 2295.186656715809 1135.8561869407272 2296.59693851556 1134.1158396992764 2296.59693851556 Z "></path>
    </defs>
    <g style="mix-blend-mode:normal">
      <use xmlns:xlink="http://www.w3.org/1999/xlink" xlink:href="#s-Path_17-784bf" fill="#000000" fill-opacity="1.0"></use>
    </g>
  </g>
  <g>
    <defs>
      <path id="s-Path_18-784bf" d="M1137.6639638643314 2288.1378517398352 C1137.6611848935645 2288.7592469405818 1138.1702291293318 2289.272864671132 1138.7916243300783 2289.275643641899 C1139.416850882432 2289.278439747034 1139.9322123372767 2288.763078292189 1139.9294162321419 2288.1378517398352 C1139.9321952029088 2287.5164565390887 1139.4231509671415 2287.0028388085384 1138.8017557663952 2287.0000598377715 C1138.1765292140412 2286.9972637326364 1137.6611677591964 2287.5126251874813 1137.6639638643314 2288.1378517398352 "></path>
    </defs>
    <g style="mix-blend-mode:normal">
      <use xmlns:xlink="http://www.w3.org/1999/xlink" xlink:href="#s-Path_18-784bf" fill="#000000" fill-opacity="1.0"></use>
    </g>
  </g>
</svg>
