<?xml version="1.0" encoding="UTF-8"?>
<svg xmlns="http://www.w3.org/2000/svg" width="19.248985462114888" height="19.200006601759924" viewBox="1202.6399580941002 2283.84999644277 19.248985462114888 19.200006601759924" preserveAspectRatio="none">
  <g>
    <defs>
      <path id="s-Path_29-784bf" d="M1217.7256768996172 2303.05000304453 L1206.803224750698 2303.05000304453 C1204.5011832810592 2303.05000304453 1202.6399580941002 2301.1887779743474 1202.6399580941002 2298.886736387932 L1202.6399580941002 2288.013263099368 C1202.6399580941002 2285.7112215129528 1204.5011831642828 2283.84999644277 1206.803224750698 2283.84999644277 L1217.7256768996172 2283.84999644277 C1220.027718369256 2283.84999644277 1221.888943556215 2285.7112215129528 1221.888943556215 2288.013263099368 L1221.888943556215 2298.935715248287 C1221.8399646958599 2301.1887783246766 1219.9787399760066 2303.05000304453 1217.7256768996172 2303.05000304453 Z "></path>
    </defs>
    <g style="mix-blend-mode:normal">
      <use xmlns:xlink="http://www.w3.org/1999/xlink" xlink:href="#s-Path_29-784bf" fill="#222221" fill-opacity="1.0"></use>
    </g>
  </g>
  <g>
    <defs>
      <path id="s-Path_30-784bf" d="M1206.6399580941002 2290.84999644277 L1209.03995891932 2290.84999644277 L1209.03995891932 2298.637753884152 L1206.6399580941002 2298.637753884152 Z "></path>
    </defs>
    <g style="mix-blend-mode:normal">
      <use xmlns:xlink="http://www.w3.org/1999/xlink" xlink:href="#s-Path_30-784bf" fill="#FFFFFF" fill-opacity="1.0"></use>
    </g>
  </g>
  <g>
    <defs>
      <path id="s-Path_31-784bf" d="M1208.0603667648265 2289.690813784223 C1208.844040500099 2289.690813784223 1209.480775435553 2289.0540789071574 1209.480775435553 2288.2704051134965 C1209.480775435553 2287.4867313198356 1208.8440405584874 2286.84999644277 1208.0603667648265 2286.84999644277 C1207.276693029554 2286.84999644277 1206.6399580941002 2287.4867313198356 1206.6399580941002 2288.2704051134965 C1206.6399580941002 2289.0540789071574 1207.2766928543892 2289.690813784223 1208.0603667648265 2289.690813784223 Z "></path>
    </defs>
    <g style="mix-blend-mode:normal">
      <use xmlns:xlink="http://www.w3.org/1999/xlink" xlink:href="#s-Path_31-784bf" fill="#FFFFFF" fill-opacity="1.0"></use>
    </g>
  </g>
  <g>
    <defs>
      <path id="s-Path_34-784bf" d="M1213.9419996805157 2294.7683650607446 C1213.9419996805157 2293.6908136674465 1214.4317957577623 2293.005099229367 1215.411387912256 2293.005099229367 C1216.2930208279452 2293.005099229367 1216.7338373441778 2293.6418341064323 1216.7338373441778 2294.7683650607446 C1216.7338373441778 2295.894896015057 1216.7338373441778 2298.8336725953145 1216.7338373441778 2298.8336725953145 L1219.133838169398 2298.8336725953145 C1219.133838169398 2298.8336725953145 1219.133838169398 2295.9928552538618 1219.133838169398 2293.9357118228463 C1219.133838169398 2291.878568391831 1217.958327537295 2290.84999644277 1216.2930208279452 2290.84999644277 C1214.6277141185953 2290.84999644277 1213.941999563739 2292.123466196901 1213.941999563739 2292.123466196901 L1213.941999563739 2291.0948944813936 L1211.6399580941002 2291.0948944813936 L1211.6399580941002 2298.8826519227755 L1213.941999563739 2298.8826519227755 C1213.9419996805157 2298.8336730624205 1213.9419996805157 2295.9438754592948 1213.9419996805157 2294.7683650607446 Z "></path>
    </defs>
    <g style="mix-blend-mode:normal">
      <use xmlns:xlink="http://www.w3.org/1999/xlink" xlink:href="#s-Path_34-784bf" fill="#FFFFFF" fill-opacity="1.0"></use>
    </g>
  </g>
</svg>
