<?xml version="1.0" encoding="UTF-8"?>
<svg xmlns="http://www.w3.org/2000/svg" width="20.65" height="16.53223943710327" viewBox="336.4860820504155 1021.0278288897537 20.65 16.53223943710327" preserveAspectRatio="none">
  <g>
    <defs>
      <path id="s-Path_13-62e9c" d="M350.65763770893005 1029.280768590834 C352.4391594579048 1029.280768590834 353.88211781707554 1027.4086687144302 353.88211781707554 1025.105948644545 C353.88211781707554 1022.8383686121963 352.446530888609 1021.0278288897537 350.65763770893005 1021.0278288897537 C348.89077414736573 1021.0278288897537 347.4331576007845 1022.8647386607192 347.4331576007845 1025.1235286768936 C347.4405282326775 1027.4174682673477 348.88340271666146 1029.280768590834 350.65763770893005 1029.280768590834 Z M342.12525379861245 1029.4828683909438 C343.6786350394448 1029.4828683909438 344.93011433522537 1027.8393690165542 344.93011433522537 1025.8090688761733 C344.93011433522537 1023.8315383967422 343.6786350394448 1022.231928544905 342.12525379861245 1022.231928544905 C340.586623007896 1022.231928544905 339.3130306182196 1023.8579084452651 339.32038487448085 1025.8178684290908 C339.32038487448085 1027.8481685694717 340.57926036411607 1029.4828683909438 342.12525379861245 1029.4828683909438 Z M350.65763770893005 1027.7426683482192 C349.6416951151465 1027.7426683482192 348.78037682766586 1026.60006828871 348.78037682766586 1025.1147386607192 C348.78037682766586 1023.6821186121963 349.6343236844423 1022.5659086283706 350.65763770893005 1022.5659086283706 C351.6883215664995 1022.5659086283706 352.53489859019425 1023.6645490702651 352.53489859019425 1025.105948644545 C352.53489859019425 1026.5824682292007 351.6809517334178 1027.7426683482192 350.65763770893005 1027.7426683482192 Z M342.12525379861245 1027.9623691615127 C341.29336012488415 1027.9623691615127 340.586623007896 1027.0131685313247 340.586623007896 1025.8178684290908 C340.586623007896 1024.6752883967422 341.28599748110423 1023.7436487254165 342.12525379861245 1023.7436487254165 C342.9792270161619 1023.7436487254165 343.67126360874056 1024.6577083643936 343.67126360874056 1025.8090688761733 C343.67126360874056 1027.0131685313247 342.964501728602 1027.9623691615127 342.12525379861245 1027.9623691615127 Z M338.0762342729999 1037.560068326857 L343.79640299103767 1037.560068326857 C343.3914919320276 1037.2787687357925 343.11909967413186 1036.6371690806411 343.17063019247837 1036.057169156935 L338.00997906620205 1036.057169156935 C337.8701058091236 1036.057169156935 337.8112130464028 1035.9780695017837 337.8112130464028 1035.8285696085952 C337.8112130464028 1033.8158685740493 339.78418869621174 1031.8998682078384 342.11789115483253 1031.8998682078384 C342.9424137972622 1031.8998682078384 343.76691966465455 1032.145969587233 344.40007188203117 1032.5678693827651 C344.6503514454367 1032.1371690806411 344.9595984604198 1031.7680685099624 345.3645015313169 1031.4516689356826 C344.4294721320388 1030.766068654921 343.2663357746931 1030.3969690379165 342.11789115483253 1030.3969690379165 C339.0038251414243 1030.3969690379165 336.4860820504155 1033.0512678202651 336.4860820504155 1035.969268995192 C336.4860820504155 1037.0239679392837 337.01613279127696 1037.560068326857 338.0762342729999 1037.560068326857 Z M346.071196311306 1037.560068326857 L355.24407830774277 1037.560068326857 C356.5176710968248 1037.560068326857 357.1360820504155 1037.0766679820083 357.1360820504155 1036.0395681437515 C357.1360820504155 1033.622568326857 354.6035546596619 1030.405768590834 350.65763770893005 1030.405768590834 C346.71171995938687 1030.405768590834 344.17919336744455 1033.622568326857 344.17919336744455 1036.0395681437515 C344.17919336744455 1037.0766679820083 344.797603522224 1037.560068326857 346.071196311306 1037.560068326857 Z M345.835659609309 1036.0219690379165 C345.66629324040895 1036.0219690379165 345.6000382333139 1035.9516679820083 345.6000382333139 1035.7934686717056 C345.6000382333139 1034.4487688120864 347.41841553818733 1031.9438688334487 350.65763770893005 1031.9438688334487 C353.8968590808615 1031.9438688334487 355.7152363857349 1034.4487688120864 355.7152363857349 1035.7934686717056 C355.7152363857349 1035.9516679820083 355.64898137863986 1036.0219690379165 355.47224437784683 1036.0219690379165 L345.835659609309 1036.0219690379165 Z "></path>
    </defs>
    <g style="mix-blend-mode:normal">
      <use xmlns:xlink="http://www.w3.org/1999/xlink" xlink:href="#s-Path_13-62e9c" fill="#8E8E93" fill-opacity="1.0"></use>
    </g>
  </g>
</svg>
