<?xml version="1.0" encoding="UTF-8"?>
<svg xmlns="http://www.w3.org/2000/svg" width="16.628950595855713" height="16.64643955230713" viewBox="737.0220386665577 808.8677031363045 16.628950595855713 16.64643955230713" preserveAspectRatio="none">
  <g>
    <defs>
      <path id="s-Path_12-62e9c" d="M741.5923888366932 820.9087426031624 C744.1850888412708 823.5102440680062 747.3403889816517 825.5141426886116 749.915588108849 825.5141426886116 C751.0669877212757 825.5141426886116 752.0776879471058 825.109843906263 752.8862893265003 824.2134434546028 C753.3608891647572 823.6860424841439 753.6509892624134 823.079642948011 753.6509892624134 822.4731423224007 C753.6509892624134 822.0073429907357 753.4663884323353 821.5503422583138 753.0180890243763 821.2339436377083 L750.3198887985462 819.3179432714974 C749.8891884964222 819.0190436209236 749.5376889389271 818.8784434164559 749.221288410973 818.8784434164559 C748.8081891220326 818.8784434164559 748.4389893692249 819.1069428289925 748.0346886795277 819.5112435186898 L747.4018876236195 820.1440426672493 C747.2964884918446 820.2407433355843 747.1733882110829 820.2847439611946 747.0591885727162 820.2847439611946 C746.9184882324452 820.2847439611946 746.7866885345692 820.2319428289925 746.698788372826 820.1792427862679 C746.1450888794178 819.8804432714974 745.1958882492298 819.0718428457772 744.31698867495 818.1929432714974 C743.4380881469959 817.3140427435433 742.6206881683582 816.3735434378182 742.330588070702 815.8110434378182 C742.2778880279774 815.7143427694832 742.2339884918446 815.591343578199 742.2339884918446 815.4507433737313 C742.2339884918446 815.3452431524788 742.2690884750599 815.2222430075203 742.3657881897205 815.1167427862679 L742.9985882919544 814.4751431311165 C743.3940884750599 814.0620428885018 743.6313883941883 813.7016426886116 743.6313883941883 813.2886435354744 C743.6313883941883 812.9634034002815 743.4907881897205 812.6118428076302 743.19198867495 812.1899735296761 L741.284728733849 809.5180932844673 C740.9595381897205 809.0610629881417 740.5025088470692 808.8677031363045 740.0015284698719 808.8677031363045 C739.4038684051746 808.8677031363045 738.8062183540577 809.1313731039559 738.287658421349 809.632353004316 C737.408758370232 810.4585229719673 737.0220386665577 811.4868428076302 737.0220386665577 812.6206328238045 C737.0220386665577 815.1958433950936 738.999578682732 818.3159434164559 741.5923888366932 820.9087426031624 Z "></path>
    </defs>
    <g style="mix-blend-mode:normal">
      <use xmlns:xlink="http://www.w3.org/1999/xlink" xlink:href="#s-Path_12-62e9c" fill="#8E8E93" fill-opacity="1.0"></use>
    </g>
  </g>
</svg>
