<svg width="20" height="14" viewBox="0 0 20 14" fill="none" xmlns="http://www.w3.org/2000/svg">
    <path
        d="M19.9334 6.69133C19.3431 5.37933 16.6414 0.333328 10.0001 0.333328C3.35875 0.333328 0.657088 5.37933 0.0667545 6.69133C0.0227601 6.78828 0 6.89352 0 7C0 7.10647 0.0227601 7.21171 0.0667545 7.30866C0.657088 8.62066 3.35875 13.6667 10.0001 13.6667C16.6414 13.6667 19.3431 8.62066 19.9334 7.30866C19.9771 7.21162 19.9997 7.10641 19.9997 7C19.9997 6.89358 19.9771 6.78837 19.9334 6.69133ZM10.0001 11.3333C7.60676 11.3333 5.66676 9.39333 5.66676 7C5.66676 4.60666 7.60676 2.66666 10.0001 2.66666C12.3934 2.66666 14.3334 4.60666 14.3334 7C14.3334 9.39333 12.3934 11.3333 10.0001 11.3333Z"
        fill="#BBB5B5" />
    <path
        d="M10 10C10.7956 10 11.5587 9.68393 12.1213 9.12132C12.6839 8.55871 13 7.79565 13 7C13 6.20435 12.6839 5.44129 12.1213 4.87868C11.5587 4.31607 10.7956 4 10 4C9.20435 4 8.44129 4.31607 7.87868 4.87868C7.31607 5.44129 7 6.20435 7 7C7 7.79565 7.31607 8.55871 7.87868 9.12132C8.44129 9.68393 9.20435 10 10 10Z"
        fill="#BBB5B5" />
</svg>