<?xml version="1.0" encoding="UTF-8"?>
<svg xmlns="http://www.w3.org/2000/svg" width="18.0" height="21.0" viewBox="737.0365147274252 913.9999999999998 18.0 21.0" preserveAspectRatio="none">
  <g>
    <defs>
      <path id="s-Path_15-62e9c" d="M749.0365147274252 913.9999999999998 L743.0365147274252 913.9999999999998 L743.0365147274252 915.9999999999998 L749.0365147274252 915.9999999999998 L749.0365147274252 913.9999999999998 Z M745.0365147274252 926.9999999999998 L747.0365147274252 926.9999999999998 L747.0365147274252 920.9999999999998 L745.0365147274252 920.9999999999998 L745.0365147274252 926.9999999999998 Z M753.0665154140708 920.3899998664854 L754.4865153711554 918.9699999094007 C754.0565153640028 918.4599999189375 753.5865153949973 917.979999899864 753.076515404534 917.5599999427793 L751.6565154474494 918.979999899864 C750.1065144222495 917.7399997711179 748.1565146129843 916.9999999999998 746.0365147274252 916.9999999999998 C741.0665149372336 916.9999999999998 737.0365147274252 921.0300002098081 737.0365147274252 925.9999999999998 C737.0365147274252 930.9699997901914 741.0565147083518 934.9999999999998 746.0365147274252 934.9999999999998 C751.0165147464987 934.9999999999998 755.0365147274252 930.9699997901914 755.0365147274252 925.9999999999998 C755.0365147274252 923.8800001144407 754.2965149563071 921.9300003051756 753.0665154140708 920.3899998664854 Z M746.0365147274252 932.9999999999998 C742.1665148418662 932.9999999999998 739.0365147274252 929.8699998855589 739.0365147274252 925.9999999999998 C739.0365147274252 922.1300001144407 742.1665148418662 918.9999999999998 746.0365147274252 918.9999999999998 C749.9065146129843 918.9999999999998 753.0365147274252 922.1300001144407 753.0365147274252 925.9999999999998 C753.0365147274252 929.8699998855589 749.9065146129843 932.9999999999998 746.0365147274252 932.9999999999998 Z "></path>
    </defs>
    <g style="mix-blend-mode:normal">
      <use xmlns:xlink="http://www.w3.org/1999/xlink" xlink:href="#s-Path_15-62e9c" fill="#7D7D7D" fill-opacity="1.0"></use>
    </g>
  </g>
</svg>
