<?xml version="1.0" encoding="UTF-8"?>
<svg xmlns="http://www.w3.org/2000/svg" width="24.199999999999996" height="16.936668648284478" viewBox="1162.175023903328 2285.281884772946 24.199999999999996 16.936668648284478" preserveAspectRatio="none">
  <g>
    <defs>
      <path id="s-Path_28-784bf" d="M1185.8731998032072 2287.9305528253244 C1185.593526777825 2286.894117493659 1184.7791847483265 2286.0797755033836 1183.7427494951075 2285.800102517225 C1181.8426180798704 2285.281884772946 1174.2749952523807 2285.281884772946 1174.2749952523807 2285.281884772946 C1174.2749952523807 2285.281884772946 1166.699146245849 2285.281884772946 1164.8072405389767 2285.783651061272 C1163.7872566240414 2286.055098378289 1162.9482375086714 2286.894117493659 1162.676790191654 2287.9305528253244 C1162.175023903328 2289.822458532197 1162.175023903328 2293.7543320689397 1162.175023903328 2293.7543320689397 C1162.175023903328 2293.7543320689397 1162.175023903328 2297.7026570224125 1162.676790191654 2299.569885447298 C1162.9564632170363 2300.6063207789634 1163.7708052465348 2301.420662769239 1164.8072404997536 2301.7003357553976 C1166.7238231748283 2302.2185534212304 1174.2749945855883 2302.2185534212304 1174.2749945855883 2302.2185534212304 C1174.2749945855883 2302.2185534212304 1181.8508429645503 2302.2185534212304 1183.7427486714228 2301.7167871329043 C1184.779184003088 2301.437114107522 1185.5935259933633 2300.622772078024 1185.8731989795224 2299.5863368248047 C1186.3749652678484 2297.6944311179323 1186.3749652678484 2293.7707834464463 1186.3749652678484 2293.7707834464463 C1186.3749652678484 2293.7707834464463 1186.3914164492396 2289.822458532197 1185.8731998032072 2287.9305528253244 Z M1171.8566454652953 2297.3818561219987 L1171.8566454652953 2290.1268086434507 L1178.1575139113652 2293.7543320689397 L1171.8566454652953 2297.3818561219987 Z "></path>
    </defs>
    <g style="mix-blend-mode:normal">
      <use xmlns:xlink="http://www.w3.org/1999/xlink" xlink:href="#s-Path_28-784bf" fill="#000000" fill-opacity="1.0"></use>
    </g>
  </g>
</svg>
